<?xml version="1.0" encoding="UTF-8"?>
<svg xmlns="http://www.w3.org/2000/svg" version="1.1" width="60px" height="60px"
	xmlns:xlink="http://www.w3.org/1999/xlink">
	<g>
		<path fill="black"
			d="M 34.5,19.5 C 35.3382,19.1583 35.6716,18.4916 35.5,17.5C 36.9907,15.8732 38.4907,14.2065 40,12.5C 42.1199,13.473 43.9532,14.8064 45.5,16.5C 40.3608,24.139 35.0275,31.639 29.5,39C 25.8859,37.4222 22.7193,34.9222 20,31.5C 19.5637,29.0638 20.397,27.0638 22.5,25.5C 24.4829,26.982 26.3163,28.6487 28,30.5C 30.6937,27.1076 32.8604,23.4409 34.5,19.5 Z" />
	</g>
	<g>
		<path fill="black"
			d="M 35.5,17.5 C 34.6618,17.8417 34.3284,18.5084 34.5,19.5C 21.0096,19.789 16.5096,26.1223 21,38.5C 27.5241,42.5562 32.8575,41.2228 37,34.5C 37.8732,34.7355 38.7065,35.0688 39.5,35.5C 40.3214,32.5535 40.8214,29.5535 41,26.5C 41.8333,25.5 42.6667,24.5 43.5,23.5C 48.6237,33.3141 46.2904,41.1475 36.5,47C 26.8469,49.8931 19.3469,47.0598 14,38.5C 10.7339,21.8682 17.5673,14.0348 34.5,15C 35.2524,15.6708 35.5858,16.5041 35.5,17.5 Z" />
	</g>
</svg>